<svg width="125" height="25" viewBox="0 0 125 25" fill="none" xmlns="http://www.w3.org/2000/svg">
<g clip-path="url(#clip0_32_9899)">
<path d="M2.37917 6.81252C3.38958 12.6625 6.91979 15.9584 12.1 19.524L12.4979 19.7917L12.5292 19.7729C17.9187 16.2167 21.5906 12.8594 22.6208 6.81461C23.2802 7.18544 23.9177 7.59169 24.5312 8.03023C23.847 11.5516 22.4199 14.8867 20.3451 17.8131C18.2703 20.7395 15.5955 23.1899 12.499 25.0011C9.40272 23.1897 6.72804 20.7394 4.65311 17.8132C2.57818 14.8871 1.15065 11.5524 0.465625 8.03127C1.08021 7.59065 1.71875 7.18336 2.37917 6.81252ZM12.5 2.45668e-05C17.0531 2.45668e-05 21.3229 1.22815 25 3.37294C24.9934 4.16374 24.9503 4.95382 24.8708 5.74065C24.2245 5.32128 23.5574 4.93502 22.8719 4.58336L22.6177 4.46565C19.2448 2.95732 15.8719 3.55211 12.4979 6.25002C9.02604 3.4719 5.55417 2.92398 2.08125 4.60419L2.11771 4.58648L1.61458 4.85419C1.10833 5.13127 0.6125 5.42711 0.130208 5.73961L0.101042 5.45315C0.0460264 4.84029 0.0130191 4.22566 0.00208333 3.61044L0 3.37294C3.79301 1.15807 8.10767 -0.00616695 12.5 2.45668e-05Z" fill="#1F2725"/>
<path d="M35.0903 19H37.3343V12.202H44.8143V19H47.0363V3.6H44.8143V10.134H37.3343V3.6H35.0903V19Z" fill="#1F2725"/>
<path d="M55.1226 19.286C57.4106 19.286 58.3786 17.966 58.7746 17.416H58.9286C58.9286 18.406 59.6546 19 60.6006 19H62.1626V17.02H61.6346C61.2826 17.02 61.0626 16.844 61.0626 16.492V7.516H58.8846V9.166H58.7086C58.2686 8.55 57.2126 7.23 54.9906 7.23C51.8226 7.23 49.6006 9.804 49.6006 13.258C49.6006 16.756 51.9326 19.286 55.1226 19.286ZM55.3866 17.284C53.3846 17.284 51.8006 15.7 51.8006 13.28C51.8006 10.926 53.3186 9.254 55.3646 9.254C57.3226 9.254 58.9506 10.728 58.9506 13.28C58.9506 15.458 57.5646 17.284 55.3866 17.284Z" fill="#1F2725"/>
<path d="M66.607 19H69.621L72.085 9.584H72.217L74.703 19H77.695L80.995 7.516H78.663L76.221 16.954H76.067L73.581 7.516H70.743L68.235 16.954H68.081L65.661 7.516H63.307L66.607 19Z" fill="#1F2725"/>
<path d="M82.8569 19H85.0349V13.764H86.7729L89.9409 19H92.5369L88.5989 12.774V12.598L92.2949 7.516H89.7429L86.7069 11.784H85.0349V2.5H82.8569V19Z" fill="#1F2725"/>
</g>
<defs>
<clipPath id="clip0_32_9899">
<rect width="125" height="25" fill="white"/>
</clipPath>
</defs>
</svg>
