<svg width="544" height="426" viewBox="0 0 544 426" fill="none" xmlns="http://www.w3.org/2000/svg">
<rect x="531" y="409" width="2" height="2" transform="rotate(-90 531 409)" fill="#2C3633"/>
<rect x="531" y="385" width="2" height="2" transform="rotate(-90 531 385)" fill="#2C3633"/>
<rect x="531" y="361" width="2" height="2" transform="rotate(-90 531 361)" fill="#2C3633"/>
<rect x="531" y="337" width="2" height="2" transform="rotate(-90 531 337)" fill="#2C3633"/>
<rect x="531" y="313" width="2" height="2" transform="rotate(-90 531 313)" fill="#2C3633"/>
<rect x="531" y="289" width="2" height="2" transform="rotate(-90 531 289)" fill="#2C3633"/>
<rect x="531" y="265" width="2" height="2" transform="rotate(-90 531 265)" fill="#2C3633"/>
<rect x="531" y="241" width="2" height="2" transform="rotate(-90 531 241)" fill="#2C3633"/>
<rect x="531" y="217" width="2" height="2" transform="rotate(-90 531 217)" fill="#2C3633"/>
<rect x="531" y="193" width="2" height="2" transform="rotate(-90 531 193)" fill="#2C3633"/>
<rect x="531" y="169" width="2" height="2" transform="rotate(-90 531 169)" fill="#2C3633"/>
<rect x="531" y="145" width="2" height="2" transform="rotate(-90 531 145)" fill="#2C3633"/>
<rect x="531" y="121" width="2" height="2" transform="rotate(-90 531 121)" fill="#2C3633"/>
<rect x="531" y="96.9999" width="2" height="2" transform="rotate(-90 531 96.9999)" fill="#2C3633"/>
<rect x="531" y="72.9999" width="2" height="2" transform="rotate(-90 531 72.9999)" fill="#2C3633"/>
<rect x="531" y="48.9999" width="2" height="2" transform="rotate(-90 531 48.9999)" fill="#2C3633"/>
<rect x="531" y="24.9999" width="2" height="2" transform="rotate(-90 531 24.9999)" fill="#2C3633"/>
<rect x="507" y="421" width="2" height="2" transform="rotate(-90 507 421)" fill="#2C3633"/>
<rect x="507" y="397" width="2" height="2" transform="rotate(-90 507 397)" fill="#2C3633"/>
<rect x="507" y="373" width="2" height="2" transform="rotate(-90 507 373)" fill="#2C3633"/>
<rect x="507" y="349" width="2" height="2" transform="rotate(-90 507 349)" fill="#2C3633"/>
<rect x="507" y="325" width="2" height="2" transform="rotate(-90 507 325)" fill="#2C3633"/>
<rect x="507" y="301" width="2" height="2" transform="rotate(-90 507 301)" fill="#2C3633"/>
<rect x="507" y="277" width="2" height="2" transform="rotate(-90 507 277)" fill="#2C3633"/>
<rect x="507" y="253" width="2" height="2" transform="rotate(-90 507 253)" fill="#2C3633"/>
<rect x="507" y="229" width="2" height="2" transform="rotate(-90 507 229)" fill="#2C3633"/>
<rect x="507" y="205" width="2" height="2" transform="rotate(-90 507 205)" fill="#2C3633"/>
<rect x="507" y="181" width="2" height="2" transform="rotate(-90 507 181)" fill="#2C3633"/>
<rect x="507" y="157" width="2" height="2" transform="rotate(-90 507 157)" fill="#2C3633"/>
<rect x="507" y="133" width="2" height="2" transform="rotate(-90 507 133)" fill="#2C3633"/>
<rect x="507" y="109" width="2" height="2" transform="rotate(-90 507 109)" fill="#2C3633"/>
<rect x="507" y="85" width="2" height="2" transform="rotate(-90 507 85)" fill="#2C3633"/>
<rect x="507" y="61" width="2" height="2" transform="rotate(-90 507 61)" fill="#2C3633"/>
<rect x="507" y="37" width="2" height="2" transform="rotate(-90 507 37)" fill="#2C3633"/>
<rect x="507" y="13" width="2" height="2" transform="rotate(-90 507 13)" fill="#2C3633"/>
<rect x="483" y="409" width="2" height="2" transform="rotate(-90 483 409)" fill="#2C3633"/>
<rect x="483" y="385" width="2" height="2" transform="rotate(-90 483 385)" fill="#2C3633"/>
<rect x="483" y="361" width="2" height="2" transform="rotate(-90 483 361)" fill="#2C3633"/>
<rect x="483" y="337" width="2" height="2" transform="rotate(-90 483 337)" fill="#2C3633"/>
<rect x="483" y="313" width="2" height="2" transform="rotate(-90 483 313)" fill="#2C3633"/>
<rect x="483" y="289" width="2" height="2" transform="rotate(-90 483 289)" fill="#2C3633"/>
<rect x="483" y="265" width="2" height="2" transform="rotate(-90 483 265)" fill="#2C3633"/>
<rect x="483" y="241" width="2" height="2" transform="rotate(-90 483 241)" fill="#2C3633"/>
<rect x="483" y="217" width="2" height="2" transform="rotate(-90 483 217)" fill="#2C3633"/>
<rect x="483" y="193" width="2" height="2" transform="rotate(-90 483 193)" fill="#2C3633"/>
<rect x="483" y="169" width="2" height="2" transform="rotate(-90 483 169)" fill="#2C3633"/>
<rect x="483" y="145" width="2" height="2" transform="rotate(-90 483 145)" fill="#2C3633"/>
<rect x="483" y="121" width="2" height="2" transform="rotate(-90 483 121)" fill="#2C3633"/>
<rect x="483" y="96.9999" width="2" height="2" transform="rotate(-90 483 96.9999)" fill="#2C3633"/>
<rect x="483" y="72.9999" width="2" height="2" transform="rotate(-90 483 72.9999)" fill="#2C3633"/>
<rect x="483" y="48.9999" width="2" height="2" transform="rotate(-90 483 48.9999)" fill="#2C3633"/>
<rect x="483" y="24.9999" width="2" height="2" transform="rotate(-90 483 24.9999)" fill="#2C3633"/>
<rect x="459" y="421" width="2" height="2" transform="rotate(-90 459 421)" fill="#2C3633"/>
<rect x="459" y="397" width="2" height="2" transform="rotate(-90 459 397)" fill="#2C3633"/>
<rect x="459" y="373" width="2" height="2" transform="rotate(-90 459 373)" fill="#2C3633"/>
<rect x="459" y="349" width="2" height="2" transform="rotate(-90 459 349)" fill="#2C3633"/>
<rect x="459" y="325" width="2" height="2" transform="rotate(-90 459 325)" fill="#2C3633"/>
<rect x="459" y="301" width="2" height="2" transform="rotate(-90 459 301)" fill="#2C3633"/>
<rect x="459" y="277" width="2" height="2" transform="rotate(-90 459 277)" fill="#2C3633"/>
<rect x="459" y="253" width="2" height="2" transform="rotate(-90 459 253)" fill="#2C3633"/>
<rect x="459" y="229" width="2" height="2" transform="rotate(-90 459 229)" fill="#2C3633"/>
<rect x="459" y="205" width="2" height="2" transform="rotate(-90 459 205)" fill="#2C3633"/>
<rect x="459" y="181" width="2" height="2" transform="rotate(-90 459 181)" fill="#2C3633"/>
<rect x="459" y="157" width="2" height="2" transform="rotate(-90 459 157)" fill="#2C3633"/>
<rect x="459" y="133" width="2" height="2" transform="rotate(-90 459 133)" fill="#2C3633"/>
<rect x="459" y="109" width="2" height="2" transform="rotate(-90 459 109)" fill="#2C3633"/>
<rect x="459" y="85" width="2" height="2" transform="rotate(-90 459 85)" fill="#2C3633"/>
<rect x="459" y="61" width="2" height="2" transform="rotate(-90 459 61)" fill="#2C3633"/>
<rect x="459" y="37" width="2" height="2" transform="rotate(-90 459 37)" fill="#2C3633"/>
<rect x="459" y="13" width="2" height="2" transform="rotate(-90 459 13)" fill="#2C3633"/>
<rect x="435" y="409" width="2" height="2" transform="rotate(-90 435 409)" fill="#2C3633"/>
<rect x="435" y="385" width="2" height="2" transform="rotate(-90 435 385)" fill="#2C3633"/>
<rect x="435" y="361" width="2" height="2" transform="rotate(-90 435 361)" fill="#2C3633"/>
<rect x="435" y="337" width="2" height="2" transform="rotate(-90 435 337)" fill="#2C3633"/>
<rect x="435" y="313" width="2" height="2" transform="rotate(-90 435 313)" fill="#2C3633"/>
<rect x="435" y="289" width="2" height="2" transform="rotate(-90 435 289)" fill="#2C3633"/>
<rect x="435" y="265" width="2" height="2" transform="rotate(-90 435 265)" fill="#2C3633"/>
<rect x="435" y="241" width="2" height="2" transform="rotate(-90 435 241)" fill="#2C3633"/>
<rect x="434" y="218" width="4" height="4" transform="rotate(-90 434 218)" fill="#4FF2A4"/>
<rect x="435" y="193" width="2" height="2" transform="rotate(-90 435 193)" fill="#2C3633"/>
<rect x="435" y="169" width="2" height="2" transform="rotate(-90 435 169)" fill="#2C3633"/>
<rect x="435" y="145" width="2" height="2" transform="rotate(-90 435 145)" fill="#2C3633"/>
<rect x="435" y="121" width="2" height="2" transform="rotate(-90 435 121)" fill="#2C3633"/>
<rect x="435" y="96.9999" width="2" height="2" transform="rotate(-90 435 96.9999)" fill="#2C3633"/>
<rect x="435" y="72.9999" width="2" height="2" transform="rotate(-90 435 72.9999)" fill="#2C3633"/>
<rect x="435" y="48.9999" width="2" height="2" transform="rotate(-90 435 48.9999)" fill="#2C3633"/>
<rect x="435" y="24.9999" width="2" height="2" transform="rotate(-90 435 24.9999)" fill="#2C3633"/>
<rect x="411" y="421" width="2" height="2" transform="rotate(-90 411 421)" fill="#2C3633"/>
<rect x="411" y="397" width="2" height="2" transform="rotate(-90 411 397)" fill="#2C3633"/>
<rect x="411" y="373" width="2" height="2" transform="rotate(-90 411 373)" fill="#2C3633"/>
<rect x="411" y="349" width="2" height="2" transform="rotate(-90 411 349)" fill="#2C3633"/>
<rect x="411" y="325" width="2" height="2" transform="rotate(-90 411 325)" fill="#2C3633"/>
<rect x="411" y="301" width="2" height="2" transform="rotate(-90 411 301)" fill="#2C3633"/>
<rect x="411" y="277" width="2" height="2" transform="rotate(-90 411 277)" fill="#2C3633"/>
<rect x="411" y="253" width="2" height="2" transform="rotate(-90 411 253)" fill="#2C3633"/>
<rect x="411" y="229" width="2" height="2" transform="rotate(-90 411 229)" fill="#2C3633"/>
<rect x="411" y="205" width="2" height="2" transform="rotate(-90 411 205)" fill="#2C3633"/>
<rect x="411" y="181" width="2" height="2" transform="rotate(-90 411 181)" fill="#2C3633"/>
<rect x="411" y="157" width="2" height="2" transform="rotate(-90 411 157)" fill="#2C3633"/>
<rect x="411" y="133" width="2" height="2" transform="rotate(-90 411 133)" fill="#2C3633"/>
<rect x="411" y="109" width="2" height="2" transform="rotate(-90 411 109)" fill="#2C3633"/>
<rect x="411" y="85" width="2" height="2" transform="rotate(-90 411 85)" fill="#2C3633"/>
<rect x="411" y="61" width="2" height="2" transform="rotate(-90 411 61)" fill="#2C3633"/>
<rect x="411" y="37" width="2" height="2" transform="rotate(-90 411 37)" fill="#2C3633"/>
<rect x="411" y="13" width="2" height="2" transform="rotate(-90 411 13)" fill="#2C3633"/>
<rect x="387" y="409" width="2" height="2" transform="rotate(-90 387 409)" fill="#2C3633"/>
<rect x="387" y="385" width="2" height="2" transform="rotate(-90 387 385)" fill="#2C3633"/>
<rect x="387" y="361" width="2" height="2" transform="rotate(-90 387 361)" fill="#2C3633"/>
<rect x="387" y="337" width="2" height="2" transform="rotate(-90 387 337)" fill="#2C3633"/>
<rect x="387" y="313" width="2" height="2" transform="rotate(-90 387 313)" fill="#2C3633"/>
<rect x="387" y="289" width="2" height="2" transform="rotate(-90 387 289)" fill="#2C3633"/>
<rect x="387" y="265" width="2" height="2" transform="rotate(-90 387 265)" fill="#2C3633"/>
<rect x="387" y="241" width="2" height="2" transform="rotate(-90 387 241)" fill="#2C3633"/>
<rect x="387" y="217" width="2" height="2" transform="rotate(-90 387 217)" fill="#2C3633"/>
<rect x="387" y="193" width="2" height="2" transform="rotate(-90 387 193)" fill="#4FF2A4"/>
<rect x="387" y="169" width="2" height="2" transform="rotate(-90 387 169)" fill="#4FF2A4"/>
<rect x="387" y="145" width="2" height="2" transform="rotate(-90 387 145)" fill="#2C3633"/>
<rect x="387" y="121" width="2" height="2" transform="rotate(-90 387 121)" fill="#2C3633"/>
<rect x="387" y="96.9999" width="2" height="2" transform="rotate(-90 387 96.9999)" fill="#2C3633"/>
<rect x="387" y="72.9999" width="2" height="2" transform="rotate(-90 387 72.9999)" fill="#2C3633"/>
<rect x="387" y="48.9999" width="2" height="2" transform="rotate(-90 387 48.9999)" fill="#2C3633"/>
<rect x="387" y="24.9999" width="2" height="2" transform="rotate(-90 387 24.9999)" fill="#2C3633"/>
<rect x="363" y="421" width="2" height="2" transform="rotate(-90 363 421)" fill="#2C3633"/>
<rect x="363" y="397" width="2" height="2" transform="rotate(-90 363 397)" fill="#4FF2A4"/>
<rect x="363" y="373" width="2" height="2" transform="rotate(-90 363 373)" fill="#2C3633"/>
<rect x="363" y="349" width="2" height="2" transform="rotate(-90 363 349)" fill="#2C3633"/>
<rect x="363" y="325" width="2" height="2" transform="rotate(-90 363 325)" fill="#2C3633"/>
<rect x="363" y="301" width="2" height="2" transform="rotate(-90 363 301)" fill="#2C3633"/>
<rect x="363" y="277" width="2" height="2" transform="rotate(-90 363 277)" fill="#2C3633"/>
<rect x="363" y="253" width="2" height="2" transform="rotate(-90 363 253)" fill="#2C3633"/>
<rect x="363" y="229" width="2" height="2" transform="rotate(-90 363 229)" fill="#4FF2A4"/>
<rect x="363" y="205" width="2" height="2" transform="rotate(-90 363 205)" fill="#2C3633"/>
<rect x="363" y="181" width="2" height="2" transform="rotate(-90 363 181)" fill="#2C3633"/>
<rect x="363" y="157" width="2" height="2" transform="rotate(-90 363 157)" fill="#2C3633"/>
<rect x="363" y="133" width="2" height="2" transform="rotate(-90 363 133)" fill="#2C3633"/>
<rect x="363" y="109" width="2" height="2" transform="rotate(-90 363 109)" fill="#2C3633"/>
<rect x="363" y="85" width="2" height="2" transform="rotate(-90 363 85)" fill="#2C3633"/>
<rect x="363" y="61" width="2" height="2" transform="rotate(-90 363 61)" fill="#2C3633"/>
<rect x="363" y="37" width="2" height="2" transform="rotate(-90 363 37)" fill="#2C3633"/>
<rect x="363" y="13" width="2" height="2" transform="rotate(-90 363 13)" fill="#2C3633"/>
<rect x="338" y="410" width="4" height="4" transform="rotate(-90 338 410)" fill="#2C3633"/>
<rect x="339" y="385" width="2" height="2" transform="rotate(-90 339 385)" fill="#2C3633"/>
<rect x="336" y="364" width="8" height="8" transform="rotate(-90 336 364)" fill="#4FF2A4"/>
<rect x="339" y="337" width="2" height="2" transform="rotate(-90 339 337)" fill="#2C3633"/>
<rect x="339" y="313" width="2" height="2" transform="rotate(-90 339 313)" fill="#2C3633"/>
<rect x="339" y="289" width="2" height="2" transform="rotate(-90 339 289)" fill="#2C3633"/>
<rect x="339" y="265" width="2" height="2" transform="rotate(-90 339 265)" fill="#2C3633"/>
<rect x="339" y="241" width="2" height="2" transform="rotate(-90 339 241)" fill="#2C3633"/>
<rect x="338" y="218" width="4" height="4" transform="rotate(-90 338 218)" fill="#4FF2A4"/>
<rect x="339" y="193" width="2" height="2" transform="rotate(-90 339 193)" fill="#2C3633"/>
<rect x="339" y="169" width="2" height="2" transform="rotate(-90 339 169)" fill="#2C3633"/>
<rect x="339" y="145" width="2" height="2" transform="rotate(-90 339 145)" fill="#2C3633"/>
<rect x="339" y="121" width="2" height="2" transform="rotate(-90 339 121)" fill="#2C3633"/>
<rect x="339" y="96.9999" width="2" height="2" transform="rotate(-90 339 96.9999)" fill="#2C3633"/>
<rect x="339" y="72.9999" width="2" height="2" transform="rotate(-90 339 72.9999)" fill="#2C3633"/>
<rect x="339" y="48.9999" width="2" height="2" transform="rotate(-90 339 48.9999)" fill="#2C3633"/>
<rect x="339" y="24.9999" width="2" height="2" transform="rotate(-90 339 24.9999)" fill="#2C3633"/>
<rect x="315" y="421" width="2" height="2" transform="rotate(-90 315 421)" fill="#2C3633"/>
<rect x="315" y="397" width="2" height="2" transform="rotate(-90 315 397)" fill="#2C3633"/>
<rect x="315" y="373" width="2" height="2" transform="rotate(-90 315 373)" fill="#4FF2A4"/>
<rect x="315" y="349" width="2" height="2" transform="rotate(-90 315 349)" fill="#2C3633"/>
<rect x="315" y="325" width="2" height="2" transform="rotate(-90 315 325)" fill="#2C3633"/>
<rect x="315" y="301" width="2" height="2" transform="rotate(-90 315 301)" fill="#2C3633"/>
<rect x="315" y="277" width="2" height="2" transform="rotate(-90 315 277)" fill="#2C3633"/>
<rect x="315" y="253" width="2" height="2" transform="rotate(-90 315 253)" fill="#4FF2A4"/>
<rect x="315" y="229" width="2" height="2" transform="rotate(-90 315 229)" fill="#2C3633"/>
<rect x="314" y="206" width="4" height="4" transform="rotate(-90 314 206)" fill="#2C3633"/>
<rect x="315" y="181" width="2" height="2" transform="rotate(-90 315 181)" fill="#2C3633"/>
<rect x="315" y="157" width="2" height="2" transform="rotate(-90 315 157)" fill="#2C3633"/>
<rect x="315" y="133" width="2" height="2" transform="rotate(-90 315 133)" fill="#2C3633"/>
<rect x="315" y="109" width="2" height="2" transform="rotate(-90 315 109)" fill="#2C3633"/>
<rect x="315" y="85" width="2" height="2" transform="rotate(-90 315 85)" fill="#2C3633"/>
<rect x="315" y="61" width="2" height="2" transform="rotate(-90 315 61)" fill="#2C3633"/>
<rect x="315" y="37" width="2" height="2" transform="rotate(-90 315 37)" fill="#2C3633"/>
<rect x="315" y="13" width="2" height="2" transform="rotate(-90 315 13)" fill="#2C3633"/>
<rect x="291" y="409" width="2" height="2" transform="rotate(-90 291 409)" fill="#2C3633"/>
<rect x="290" y="386" width="4" height="4" transform="rotate(-90 290 386)" fill="#2C3633"/>
<rect x="291" y="361" width="2" height="2" transform="rotate(-90 291 361)" fill="#4FF2A4"/>
<rect x="291" y="337" width="2" height="2" transform="rotate(-90 291 337)" fill="#2C3633"/>
<rect x="288" y="316" width="8" height="8" transform="rotate(-90 288 316)" fill="#2C3633"/>
<rect x="291" y="289" width="2" height="2" transform="rotate(-90 291 289)" fill="#2C3633"/>
<rect x="291" y="265" width="2" height="2" transform="rotate(-90 291 265)" fill="#2C3633"/>
<rect x="291" y="241" width="2" height="2" transform="rotate(-90 291 241)" fill="#2C3633"/>
<rect x="291" y="217" width="2" height="2" transform="rotate(-90 291 217)" fill="#2C3633"/>
<rect x="290" y="194" width="4" height="4" transform="rotate(-90 290 194)" fill="#2C3633"/>
<rect x="291" y="169" width="2" height="2" transform="rotate(-90 291 169)" fill="#2C3633"/>
<rect x="291" y="145" width="2" height="2" transform="rotate(-90 291 145)" fill="#2C3633"/>
<rect x="291" y="121" width="2" height="2" transform="rotate(-90 291 121)" fill="#2C3633"/>
<rect x="291" y="96.9999" width="2" height="2" transform="rotate(-90 291 96.9999)" fill="#2C3633"/>
<rect x="291" y="72.9999" width="2" height="2" transform="rotate(-90 291 72.9999)" fill="#2C3633"/>
<rect x="291" y="48.9999" width="2" height="2" transform="rotate(-90 291 48.9999)" fill="#2C3633"/>
<rect x="291" y="24.9999" width="2" height="2" transform="rotate(-90 291 24.9999)" fill="#2C3633"/>
<rect x="267" y="421" width="2" height="2" transform="rotate(-90 267 421)" fill="#2C3633"/>
<rect x="267" y="397" width="2" height="2" transform="rotate(-90 267 397)" fill="#2C3633"/>
<rect x="267" y="373" width="2" height="2" transform="rotate(-90 267 373)" fill="#2C3633"/>
<rect x="267" y="349" width="2" height="2" transform="rotate(-90 267 349)" fill="#2C3633"/>
<rect x="267" y="325" width="2" height="2" transform="rotate(-90 267 325)" fill="#2C3633"/>
<rect x="266" y="302" width="4" height="4" transform="rotate(-90 266 302)" fill="#2C3633"/>
<rect x="266" y="278" width="4" height="4" transform="rotate(-90 266 278)" fill="#4FF2A4"/>
<rect x="267" y="253" width="2" height="2" transform="rotate(-90 267 253)" fill="#2C3633"/>
<rect x="267" y="229" width="2" height="2" transform="rotate(-90 267 229)" fill="#2C3633"/>
<rect x="266" y="206" width="4" height="4" transform="rotate(-90 266 206)" fill="#2C3633"/>
<rect x="267" y="181" width="2" height="2" transform="rotate(-90 267 181)" fill="#2C3633"/>
<rect x="267" y="157" width="2" height="2" transform="rotate(-90 267 157)" fill="#2C3633"/>
<rect x="267" y="133" width="2" height="2" transform="rotate(-90 267 133)" fill="#2C3633"/>
<rect x="267" y="109" width="2" height="2" transform="rotate(-90 267 109)" fill="#2C3633"/>
<rect x="267" y="85" width="2" height="2" transform="rotate(-90 267 85)" fill="#2C3633"/>
<rect x="267" y="61" width="2" height="2" transform="rotate(-90 267 61)" fill="#2C3633"/>
<rect x="267" y="37" width="2" height="2" transform="rotate(-90 267 37)" fill="#2C3633"/>
<rect x="267" y="13" width="2" height="2" transform="rotate(-90 267 13)" fill="#2C3633"/>
<rect x="243" y="409" width="2" height="2" transform="rotate(-90 243 409)" fill="#2C3633"/>
<rect x="243" y="385" width="2" height="2" transform="rotate(-90 243 385)" fill="#2C3633"/>
<rect x="243" y="361" width="2" height="2" transform="rotate(-90 243 361)" fill="#4FF2A4"/>
<rect x="243" y="337" width="2" height="2" transform="rotate(-90 243 337)" fill="#2C3633"/>
<rect x="242" y="314" width="4" height="4" transform="rotate(-90 242 314)" fill="#2C3633"/>
<rect x="243" y="289" width="2" height="2" transform="rotate(-90 243 289)" fill="#2C3633"/>
<rect x="242" y="266" width="4" height="4" transform="rotate(-90 242 266)" fill="#2C3633"/>
<rect x="243" y="241" width="2" height="2" transform="rotate(-90 243 241)" fill="#2C3633"/>
<rect x="242" y="218" width="4" height="4" transform="rotate(-90 242 218)" fill="#4FF2A4"/>
<rect x="243" y="193" width="2" height="2" transform="rotate(-90 243 193)" fill="#2C3633"/>
<rect x="243" y="169" width="2" height="2" transform="rotate(-90 243 169)" fill="#2C3633"/>
<rect x="242" y="146" width="4" height="4" transform="rotate(-90 242 146)" fill="#2C3633"/>
<rect x="243" y="121" width="2" height="2" transform="rotate(-90 243 121)" fill="#2C3633"/>
<rect x="243" y="96.9999" width="2" height="2" transform="rotate(-90 243 96.9999)" fill="#2C3633"/>
<rect x="243" y="72.9999" width="2" height="2" transform="rotate(-90 243 72.9999)" fill="#2C3633"/>
<rect x="243" y="48.9999" width="2" height="2" transform="rotate(-90 243 48.9999)" fill="#2C3633"/>
<rect x="243" y="24.9999" width="2" height="2" transform="rotate(-90 243 24.9999)" fill="#2C3633"/>
<rect x="219" y="421" width="2" height="2" transform="rotate(-90 219 421)" fill="#2C3633"/>
<rect x="219" y="397" width="2" height="2" transform="rotate(-90 219 397)" fill="#2C3633"/>
<rect x="219" y="373" width="2" height="2" transform="rotate(-90 219 373)" fill="#2C3633"/>
<rect x="219" y="349" width="2" height="2" transform="rotate(-90 219 349)" fill="#2C3633"/>
<rect x="219" y="325" width="2" height="2" transform="rotate(-90 219 325)" fill="#2C3633"/>
<rect x="216" y="304" width="8" height="8" transform="rotate(-90 216 304)" fill="#2C3633"/>
<rect x="219" y="277" width="2" height="2" transform="rotate(-90 219 277)" fill="#2C3633"/>
<rect x="218" y="254" width="4" height="4" transform="rotate(-90 218 254)" fill="#4FF2A4"/>
<rect x="219" y="229" width="2" height="2" transform="rotate(-90 219 229)" fill="#2C3633"/>
<rect x="216" y="208" width="8" height="8" transform="rotate(-90 216 208)" fill="#2C3633"/>
<rect x="218" y="182" width="4" height="4" transform="rotate(-90 218 182)" fill="#2C3633"/>
<rect x="219" y="157" width="2" height="2" transform="rotate(-90 219 157)" fill="#2C3633"/>
<rect x="219" y="133" width="2" height="2" transform="rotate(-90 219 133)" fill="#2C3633"/>
<rect x="219" y="109" width="2" height="2" transform="rotate(-90 219 109)" fill="#2C3633"/>
<rect x="219" y="85" width="2" height="2" transform="rotate(-90 219 85)" fill="#2C3633"/>
<rect x="219" y="61" width="2" height="2" transform="rotate(-90 219 61)" fill="#2C3633"/>
<rect x="219" y="37" width="2" height="2" transform="rotate(-90 219 37)" fill="#2C3633"/>
<rect x="219" y="13" width="2" height="2" transform="rotate(-90 219 13)" fill="#2C3633"/>
<rect x="195" y="409" width="2" height="2" transform="rotate(-90 195 409)" fill="#2C3633"/>
<rect x="195" y="385" width="2" height="2" transform="rotate(-90 195 385)" fill="#2C3633"/>
<rect x="195" y="361" width="2" height="2" transform="rotate(-90 195 361)" fill="#2C3633"/>
<rect x="195" y="337" width="2" height="2" transform="rotate(-90 195 337)" fill="#2C3633"/>
<rect x="192" y="316" width="8" height="8" transform="rotate(-90 192 316)" fill="#4FF2A4"/>
<rect x="194" y="290" width="4" height="4" transform="rotate(-90 194 290)" fill="#2C3633"/>
<rect x="195" y="265" width="2" height="2" transform="rotate(-90 195 265)" fill="#4FF2A4"/>
<rect x="194" y="242" width="4" height="4" transform="rotate(-90 194 242)" fill="#2C3633"/>
<rect x="194" y="218" width="4" height="4" transform="rotate(-90 194 218)" fill="#2C3633"/>
<rect x="194" y="194" width="4" height="4" transform="rotate(-90 194 194)" fill="#2C3633"/>
<rect x="195" y="169" width="2" height="2" transform="rotate(-90 195 169)" fill="#2C3633"/>
<rect x="195" y="145" width="2" height="2" transform="rotate(-90 195 145)" fill="#2C3633"/>
<rect x="195" y="121" width="2" height="2" transform="rotate(-90 195 121)" fill="#2C3633"/>
<rect x="195" y="96.9999" width="2" height="2" transform="rotate(-90 195 96.9999)" fill="#2C3633"/>
<rect x="195" y="72.9999" width="2" height="2" transform="rotate(-90 195 72.9999)" fill="#2C3633"/>
<rect x="195" y="48.9999" width="2" height="2" transform="rotate(-90 195 48.9999)" fill="#2C3633"/>
<rect x="195" y="24.9999" width="2" height="2" transform="rotate(-90 195 24.9999)" fill="#2C3633"/>
<rect x="171" y="421" width="2" height="2" transform="rotate(-90 171 421)" fill="#2C3633"/>
<rect x="171" y="397" width="2" height="2" transform="rotate(-90 171 397)" fill="#2C3633"/>
<rect x="171" y="373" width="2" height="2" transform="rotate(-90 171 373)" fill="#2C3633"/>
<rect x="171" y="349" width="2" height="2" transform="rotate(-90 171 349)" fill="#2C3633"/>
<rect x="171" y="325" width="2" height="2" transform="rotate(-90 171 325)" fill="#2C3633"/>
<rect x="170" y="302" width="4" height="4" transform="rotate(-90 170 302)" fill="#2C3633"/>
<rect x="168" y="280" width="8" height="8" transform="rotate(-90 168 280)" fill="#2C3633"/>
<rect x="171" y="253" width="2" height="2" transform="rotate(-90 171 253)" fill="#2C3633"/>
<rect x="168" y="232" width="8" height="8" transform="rotate(-90 168 232)" fill="#4FF2A4"/>
<rect x="171" y="205" width="2" height="2" transform="rotate(-90 171 205)" fill="#2C3633"/>
<rect x="171" y="181" width="2" height="2" transform="rotate(-90 171 181)" fill="#2C3633"/>
<rect x="171" y="157" width="2" height="2" transform="rotate(-90 171 157)" fill="#2C3633"/>
<rect x="171" y="133" width="2" height="2" transform="rotate(-90 171 133)" fill="#2C3633"/>
<rect x="171" y="109" width="2" height="2" transform="rotate(-90 171 109)" fill="#2C3633"/>
<rect x="171" y="84.9999" width="2" height="2" transform="rotate(-90 171 84.9999)" fill="#2C3633"/>
<rect x="171" y="60.9999" width="2" height="2" transform="rotate(-90 171 60.9999)" fill="#2C3633"/>
<rect x="171" y="36.9999" width="2" height="2" transform="rotate(-90 171 36.9999)" fill="#2C3633"/>
<rect x="171" y="12.9999" width="2" height="2" transform="rotate(-90 171 12.9999)" fill="#2C3633"/>
<rect x="147" y="409" width="2" height="2" transform="rotate(-90 147 409)" fill="#2C3633"/>
<rect x="147" y="385" width="2" height="2" transform="rotate(-90 147 385)" fill="#2C3633"/>
<rect x="147" y="361" width="2" height="2" transform="rotate(-90 147 361)" fill="#2C3633"/>
<rect x="147" y="337" width="2" height="2" transform="rotate(-90 147 337)" fill="#2C3633"/>
<rect x="146" y="314" width="4" height="4" transform="rotate(-90 146 314)" fill="#4FF2A4"/>
<rect x="146" y="290" width="4" height="4" transform="rotate(-90 146 290)" fill="#2C3633"/>
<rect x="144" y="268" width="8" height="8" transform="rotate(-90 144 268)" fill="#2C3633"/>
<rect x="146" y="242" width="4" height="4" transform="rotate(-90 146 242)" fill="#2C3633"/>
<rect x="146" y="218" width="4" height="4" transform="rotate(-90 146 218)" fill="#2C3633"/>
<rect x="147" y="193" width="2" height="2" transform="rotate(-90 147 193)" fill="#2C3633"/>
<rect x="147" y="169" width="2" height="2" transform="rotate(-90 147 169)" fill="#2C3633"/>
<rect x="147" y="145" width="2" height="2" transform="rotate(-90 147 145)" fill="#2C3633"/>
<rect x="147" y="121" width="2" height="2" transform="rotate(-90 147 121)" fill="#2C3633"/>
<rect x="147" y="96.9999" width="2" height="2" transform="rotate(-90 147 96.9999)" fill="#2C3633"/>
<rect x="147" y="72.9999" width="2" height="2" transform="rotate(-90 147 72.9999)" fill="#2C3633"/>
<rect x="147" y="48.9999" width="2" height="2" transform="rotate(-90 147 48.9999)" fill="#2C3633"/>
<rect x="147" y="24.9999" width="2" height="2" transform="rotate(-90 147 24.9999)" fill="#2C3633"/>
<rect x="123" y="421" width="2" height="2" transform="rotate(-90 123 421)" fill="#2C3633"/>
<rect x="123" y="397" width="2" height="2" transform="rotate(-90 123 397)" fill="#2C3633"/>
<rect x="123" y="373" width="2" height="2" transform="rotate(-90 123 373)" fill="#2C3633"/>
<rect x="123" y="349" width="2" height="2" transform="rotate(-90 123 349)" fill="#2C3633"/>
<rect x="123" y="325" width="2" height="2" transform="rotate(-90 123 325)" fill="#2C3633"/>
<rect x="123" y="301" width="2" height="2" transform="rotate(-90 123 301)" fill="#2C3633"/>
<rect x="122" y="278" width="4" height="4" transform="rotate(-90 122 278)" fill="#4FF2A4"/>
<rect x="123" y="253" width="2" height="2" transform="rotate(-90 123 253)" fill="#2C3633"/>
<rect x="123" y="229" width="2" height="2" transform="rotate(-90 123 229)" fill="#2C3633"/>
<rect x="123" y="205" width="2" height="2" transform="rotate(-90 123 205)" fill="#2C3633"/>
<rect x="123" y="181" width="2" height="2" transform="rotate(-90 123 181)" fill="#4FF2A4"/>
<rect x="123" y="157" width="2" height="2" transform="rotate(-90 123 157)" fill="#2C3633"/>
<rect x="123" y="133" width="2" height="2" transform="rotate(-90 123 133)" fill="#2C3633"/>
<rect x="123" y="109" width="2" height="2" transform="rotate(-90 123 109)" fill="#2C3633"/>
<rect x="123" y="84.9999" width="2" height="2" transform="rotate(-90 123 84.9999)" fill="#2C3633"/>
<rect x="123" y="60.9999" width="2" height="2" transform="rotate(-90 123 60.9999)" fill="#2C3633"/>
<rect x="123" y="36.9999" width="2" height="2" transform="rotate(-90 123 36.9999)" fill="#2C3633"/>
<rect x="123" y="12.9999" width="2" height="2" transform="rotate(-90 123 12.9999)" fill="#2C3633"/>
<rect x="99" y="409" width="2" height="2" transform="rotate(-90 99 409)" fill="#2C3633"/>
<rect x="99" y="385" width="2" height="2" transform="rotate(-90 99 385)" fill="#2C3633"/>
<rect x="99" y="361" width="2" height="2" transform="rotate(-90 99 361)" fill="#2C3633"/>
<rect x="99" y="337" width="2" height="2" transform="rotate(-90 99 337)" fill="#2C3633"/>
<rect x="98" y="314" width="4" height="4" transform="rotate(-90 98 314)" fill="#2C3633"/>
<rect x="98" y="290" width="4" height="4" transform="rotate(-90 98 290)" fill="#2C3633"/>
<rect x="98.0001" y="266" width="4" height="4" transform="rotate(-90 98.0001 266)" fill="#2C3633"/>
<rect x="99.0001" y="241" width="2" height="2" transform="rotate(-90 99.0001 241)" fill="#2C3633"/>
<rect x="99.0001" y="217" width="2" height="2" transform="rotate(-90 99.0001 217)" fill="#2C3633"/>
<rect x="99.0001" y="193" width="2" height="2" transform="rotate(-90 99.0001 193)" fill="#2C3633"/>
<rect x="99.0001" y="169" width="2" height="2" transform="rotate(-90 99.0001 169)" fill="#2C3633"/>
<rect x="99.0001" y="145" width="2" height="2" transform="rotate(-90 99.0001 145)" fill="#2C3633"/>
<rect x="99.0001" y="121" width="2" height="2" transform="rotate(-90 99.0001 121)" fill="#2C3633"/>
<rect x="99.0001" y="96.9999" width="2" height="2" transform="rotate(-90 99.0001 96.9999)" fill="#2C3633"/>
<rect x="99.0001" y="72.9999" width="2" height="2" transform="rotate(-90 99.0001 72.9999)" fill="#2C3633"/>
<rect x="99.0001" y="48.9999" width="2" height="2" transform="rotate(-90 99.0001 48.9999)" fill="#2C3633"/>
<rect x="99.0001" y="24.9999" width="2" height="2" transform="rotate(-90 99.0001 24.9999)" fill="#2C3633"/>
<rect x="75" y="421" width="2" height="2" transform="rotate(-90 75 421)" fill="#2C3633"/>
<rect x="75" y="397" width="2" height="2" transform="rotate(-90 75 397)" fill="#2C3633"/>
<rect x="75" y="373" width="2" height="2" transform="rotate(-90 75 373)" fill="#2C3633"/>
<rect x="75" y="349" width="2" height="2" transform="rotate(-90 75 349)" fill="#2C3633"/>
<rect x="75" y="325" width="2" height="2" transform="rotate(-90 75 325)" fill="#2C3633"/>
<rect x="72" y="304" width="8" height="8" transform="rotate(-90 72 304)" fill="#2C3633"/>
<rect x="75.0001" y="277" width="2" height="2" transform="rotate(-90 75.0001 277)" fill="#2C3633"/>
<rect x="75.0001" y="253" width="2" height="2" transform="rotate(-90 75.0001 253)" fill="#2C3633"/>
<rect x="75.0001" y="229" width="2" height="2" transform="rotate(-90 75.0001 229)" fill="#2C3633"/>
<rect x="75.0001" y="205" width="2" height="2" transform="rotate(-90 75.0001 205)" fill="#2C3633"/>
<rect x="75.0001" y="181" width="2" height="2" transform="rotate(-90 75.0001 181)" fill="#2C3633"/>
<rect x="75.0001" y="157" width="2" height="2" transform="rotate(-90 75.0001 157)" fill="#2C3633"/>
<rect x="75.0001" y="133" width="2" height="2" transform="rotate(-90 75.0001 133)" fill="#2C3633"/>
<rect x="75.0001" y="109" width="2" height="2" transform="rotate(-90 75.0001 109)" fill="#2C3633"/>
<rect x="75.0001" y="84.9999" width="2" height="2" transform="rotate(-90 75.0001 84.9999)" fill="#2C3633"/>
<rect x="75.0001" y="60.9999" width="2" height="2" transform="rotate(-90 75.0001 60.9999)" fill="#2C3633"/>
<rect x="75.0001" y="36.9999" width="2" height="2" transform="rotate(-90 75.0001 36.9999)" fill="#2C3633"/>
<rect x="75.0001" y="12.9999" width="2" height="2" transform="rotate(-90 75.0001 12.9999)" fill="#2C3633"/>
<rect x="51" y="409" width="2" height="2" transform="rotate(-90 51 409)" fill="#2C3633"/>
<rect x="51" y="385" width="2" height="2" transform="rotate(-90 51 385)" fill="#2C3633"/>
<rect x="51" y="361" width="2" height="2" transform="rotate(-90 51 361)" fill="#2C3633"/>
<rect x="51" y="337" width="2" height="2" transform="rotate(-90 51 337)" fill="#2C3633"/>
<rect x="51" y="313" width="2" height="2" transform="rotate(-90 51 313)" fill="#2C3633"/>
<rect x="51" y="289" width="2" height="2" transform="rotate(-90 51 289)" fill="#2C3633"/>
<rect x="51.0001" y="265" width="2" height="2" transform="rotate(-90 51.0001 265)" fill="#2C3633"/>
<rect x="51.0001" y="241" width="2" height="2" transform="rotate(-90 51.0001 241)" fill="#2C3633"/>
<rect x="51.0001" y="217" width="2" height="2" transform="rotate(-90 51.0001 217)" fill="#2C3633"/>
<rect x="51.0001" y="193" width="2" height="2" transform="rotate(-90 51.0001 193)" fill="#2C3633"/>
<rect x="51.0001" y="169" width="2" height="2" transform="rotate(-90 51.0001 169)" fill="#2C3633"/>
<rect x="51.0001" y="145" width="2" height="2" transform="rotate(-90 51.0001 145)" fill="#2C3633"/>
<rect x="51.0001" y="121" width="2" height="2" transform="rotate(-90 51.0001 121)" fill="#2C3633"/>
<rect x="51.0001" y="96.9999" width="2" height="2" transform="rotate(-90 51.0001 96.9999)" fill="#2C3633"/>
<rect x="51.0001" y="72.9999" width="2" height="2" transform="rotate(-90 51.0001 72.9999)" fill="#2C3633"/>
<rect x="51.0001" y="48.9999" width="2" height="2" transform="rotate(-90 51.0001 48.9999)" fill="#2C3633"/>
<rect x="51.0001" y="24.9999" width="2" height="2" transform="rotate(-90 51.0001 24.9999)" fill="#2C3633"/>
<rect x="27" y="409" width="2" height="2" transform="rotate(-90 27 409)" fill="#2C3633"/>
<rect x="27" y="385" width="2" height="2" transform="rotate(-90 27 385)" fill="#2C3633"/>
<rect x="27" y="361" width="2" height="2" transform="rotate(-90 27 361)" fill="#2C3633"/>
<rect x="27" y="337" width="2" height="2" transform="rotate(-90 27 337)" fill="#2C3633"/>
<rect x="27" y="313" width="2" height="2" transform="rotate(-90 27 313)" fill="#2C3633"/>
<rect x="27" y="289" width="2" height="2" transform="rotate(-90 27 289)" fill="#2C3633"/>
<rect x="27.0001" y="265" width="2" height="2" transform="rotate(-90 27.0001 265)" fill="#2C3633"/>
<rect x="27.0001" y="241" width="2" height="2" transform="rotate(-90 27.0001 241)" fill="#2C3633"/>
<rect x="27.0001" y="217" width="2" height="2" transform="rotate(-90 27.0001 217)" fill="#2C3633"/>
<rect x="27.0001" y="193" width="2" height="2" transform="rotate(-90 27.0001 193)" fill="#2C3633"/>
<rect x="27.0001" y="169" width="2" height="2" transform="rotate(-90 27.0001 169)" fill="#2C3633"/>
<rect x="27.0001" y="145" width="2" height="2" transform="rotate(-90 27.0001 145)" fill="#2C3633"/>
<rect x="27.0001" y="121" width="2" height="2" transform="rotate(-90 27.0001 121)" fill="#2C3633"/>
<rect x="27.0001" y="96.9999" width="2" height="2" transform="rotate(-90 27.0001 96.9999)" fill="#2C3633"/>
<rect x="27.0001" y="72.9999" width="2" height="2" transform="rotate(-90 27.0001 72.9999)" fill="#2C3633"/>
<rect x="27.0001" y="48.9999" width="2" height="2" transform="rotate(-90 27.0001 48.9999)" fill="#2C3633"/>
<rect x="27.0001" y="24.9999" width="2" height="2" transform="rotate(-90 27.0001 24.9999)" fill="#2C3633"/>
<rect x="2.99994" y="409" width="2" height="2" transform="rotate(-90 2.99994 409)" fill="#2C3633"/>
<rect x="2.99994" y="385" width="2" height="2" transform="rotate(-90 2.99994 385)" fill="#2C3633"/>
<rect x="2.99994" y="361" width="2" height="2" transform="rotate(-90 2.99994 361)" fill="#2C3633"/>
<rect x="2.99994" y="337" width="2" height="2" transform="rotate(-90 2.99994 337)" fill="#2C3633"/>
<rect x="2.99994" y="313" width="2" height="2" transform="rotate(-90 2.99994 313)" fill="#2C3633"/>
<rect x="2.99994" y="289" width="2" height="2" transform="rotate(-90 2.99994 289)" fill="#2C3633"/>
<rect x="3" y="265" width="2" height="2" transform="rotate(-90 3 265)" fill="#2C3633"/>
<rect x="3" y="241" width="2" height="2" transform="rotate(-90 3 241)" fill="#2C3633"/>
<rect x="3" y="217" width="2" height="2" transform="rotate(-90 3 217)" fill="#2C3633"/>
<rect x="3" y="193" width="2" height="2" transform="rotate(-90 3 193)" fill="#2C3633"/>
<rect x="3" y="169" width="2" height="2" transform="rotate(-90 3 169)" fill="#2C3633"/>
<rect x="3" y="145" width="2" height="2" transform="rotate(-90 3 145)" fill="#2C3633"/>
<rect x="3" y="121" width="2" height="2" transform="rotate(-90 3 121)" fill="#2C3633"/>
<rect x="3" y="96.9999" width="2" height="2" transform="rotate(-90 3 96.9999)" fill="#2C3633"/>
<rect x="3" y="72.9999" width="2" height="2" transform="rotate(-90 3 72.9999)" fill="#2C3633"/>
<rect x="3" y="48.9999" width="2" height="2" transform="rotate(-90 3 48.9999)" fill="#2C3633"/>
<rect x="3" y="24.9999" width="2" height="2" transform="rotate(-90 3 24.9999)" fill="#2C3633"/>
</svg>
