<svg width="448" height="389" viewBox="0 0 448 389" fill="none" xmlns="http://www.w3.org/2000/svg">
<rect x="13" y="4" width="2" height="2" transform="rotate(90 13 4)" fill="#2C3633"/>
<rect x="13" y="28" width="2" height="2" transform="rotate(90 13 28)" fill="#2C3633"/>
<rect x="13" y="52" width="2" height="2" transform="rotate(90 13 52)" fill="#2C3633"/>
<rect x="13" y="76" width="2" height="2" transform="rotate(90 13 76)" fill="#2C3633"/>
<rect x="13" y="100" width="2" height="2" transform="rotate(90 13 100)" fill="#2C3633"/>
<rect x="13" y="124" width="2" height="2" transform="rotate(90 13 124)" fill="#2C3633"/>
<rect x="13" y="148" width="2" height="2" transform="rotate(90 13 148)" fill="#2C3633"/>
<rect x="13" y="172" width="2" height="2" transform="rotate(90 13 172)" fill="#2C3633"/>
<rect x="13" y="196" width="2" height="2" transform="rotate(90 13 196)" fill="#2C3633"/>
<rect x="13" y="220" width="2" height="2" transform="rotate(90 13 220)" fill="#2C3633"/>
<rect x="13" y="244" width="2" height="2" transform="rotate(90 13 244)" fill="#2C3633"/>
<rect x="13" y="268" width="2" height="2" transform="rotate(90 13 268)" fill="#2C3633"/>
<rect x="13" y="292" width="2" height="2" transform="rotate(90 13 292)" fill="#2C3633"/>
<rect x="13" y="316" width="2" height="2" transform="rotate(90 13 316)" fill="#2C3633"/>
<rect x="13" y="340" width="2" height="2" transform="rotate(90 13 340)" fill="#2C3633"/>
<rect x="13" y="364" width="2" height="2" transform="rotate(90 13 364)" fill="#2C3633"/>
<rect x="37" y="16" width="2" height="2" transform="rotate(90 37 16)" fill="#2C3633"/>
<rect x="37" y="40" width="2" height="2" transform="rotate(90 37 40)" fill="#2C3633"/>
<rect x="37" y="64" width="2" height="2" transform="rotate(90 37 64)" fill="#2C3633"/>
<rect x="37" y="88" width="2" height="2" transform="rotate(90 37 88)" fill="#2C3633"/>
<rect x="37" y="112" width="2" height="2" transform="rotate(90 37 112)" fill="#2C3633"/>
<rect x="37" y="136" width="2" height="2" transform="rotate(90 37 136)" fill="#2C3633"/>
<rect x="37" y="160" width="2" height="2" transform="rotate(90 37 160)" fill="#2C3633"/>
<rect x="37" y="184" width="2" height="2" transform="rotate(90 37 184)" fill="#2C3633"/>
<rect x="37" y="208" width="2" height="2" transform="rotate(90 37 208)" fill="#2C3633"/>
<rect x="37" y="232" width="2" height="2" transform="rotate(90 37 232)" fill="#2C3633"/>
<rect x="37" y="256" width="2" height="2" transform="rotate(90 37 256)" fill="#2C3633"/>
<rect x="37" y="280" width="2" height="2" transform="rotate(90 37 280)" fill="#2C3633"/>
<rect x="37" y="304" width="2" height="2" transform="rotate(90 37 304)" fill="#2C3633"/>
<rect x="37" y="328" width="2" height="2" transform="rotate(90 37 328)" fill="#2C3633"/>
<rect x="37" y="352" width="2" height="2" transform="rotate(90 37 352)" fill="#2C3633"/>
<rect x="37" y="376" width="2" height="2" transform="rotate(90 37 376)" fill="#2C3633"/>
<rect x="61" y="4" width="2" height="2" transform="rotate(90 61 4)" fill="#2C3633"/>
<rect x="61" y="28" width="2" height="2" transform="rotate(90 61 28)" fill="#2C3633"/>
<rect x="61" y="52" width="2" height="2" transform="rotate(90 61 52)" fill="#2C3633"/>
<rect x="61" y="76" width="2" height="2" transform="rotate(90 61 76)" fill="#2C3633"/>
<rect x="61" y="100" width="2" height="2" transform="rotate(90 61 100)" fill="#2C3633"/>
<rect x="61" y="124" width="2" height="2" transform="rotate(90 61 124)" fill="#2C3633"/>
<rect x="61" y="148" width="2" height="2" transform="rotate(90 61 148)" fill="#2C3633"/>
<rect x="61" y="172" width="2" height="2" transform="rotate(90 61 172)" fill="#2C3633"/>
<rect x="61" y="196" width="2" height="2" transform="rotate(90 61 196)" fill="#2C3633"/>
<rect x="61" y="220" width="2" height="2" transform="rotate(90 61 220)" fill="#2C3633"/>
<rect x="61" y="244" width="2" height="2" transform="rotate(90 61 244)" fill="#2C3633"/>
<rect x="61" y="268" width="2" height="2" transform="rotate(90 61 268)" fill="#2C3633"/>
<rect x="61" y="292" width="2" height="2" transform="rotate(90 61 292)" fill="#2C3633"/>
<rect x="61" y="316" width="2" height="2" transform="rotate(90 61 316)" fill="#2C3633"/>
<rect x="61" y="340" width="2" height="2" transform="rotate(90 61 340)" fill="#2C3633"/>
<rect x="61" y="364" width="2" height="2" transform="rotate(90 61 364)" fill="#2C3633"/>
<rect x="85" y="16" width="2" height="2" transform="rotate(90 85 16)" fill="#2C3633"/>
<rect x="85" y="40" width="2" height="2" transform="rotate(90 85 40)" fill="#2C3633"/>
<rect x="85" y="64" width="2" height="2" transform="rotate(90 85 64)" fill="#2C3633"/>
<rect x="85" y="88" width="2" height="2" transform="rotate(90 85 88)" fill="#2C3633"/>
<rect x="85" y="112" width="2" height="2" transform="rotate(90 85 112)" fill="#2C3633"/>
<rect x="85" y="136" width="2" height="2" transform="rotate(90 85 136)" fill="#2C3633"/>
<rect x="85" y="160" width="2" height="2" transform="rotate(90 85 160)" fill="#2C3633"/>
<rect x="85" y="184" width="2" height="2" transform="rotate(90 85 184)" fill="#2C3633"/>
<rect x="85" y="208" width="2" height="2" transform="rotate(90 85 208)" fill="#2C3633"/>
<rect x="85" y="232" width="2" height="2" transform="rotate(90 85 232)" fill="#2C3633"/>
<rect x="85" y="256" width="2" height="2" transform="rotate(90 85 256)" fill="#2C3633"/>
<rect x="85" y="280" width="2" height="2" transform="rotate(90 85 280)" fill="#2C3633"/>
<rect x="85" y="304" width="2" height="2" transform="rotate(90 85 304)" fill="#2C3633"/>
<rect x="85" y="328" width="2" height="2" transform="rotate(90 85 328)" fill="#2C3633"/>
<rect x="85" y="352" width="2" height="2" transform="rotate(90 85 352)" fill="#2C3633"/>
<rect x="85" y="376" width="2" height="2" transform="rotate(90 85 376)" fill="#2C3633"/>
<rect x="109" y="4" width="2" height="2" transform="rotate(90 109 4)" fill="#2C3633"/>
<rect x="109" y="28" width="2" height="2" transform="rotate(90 109 28)" fill="#2C3633"/>
<rect x="109" y="52" width="2" height="2" transform="rotate(90 109 52)" fill="#2C3633"/>
<rect x="109" y="76" width="2" height="2" transform="rotate(90 109 76)" fill="#2C3633"/>
<rect x="109" y="100" width="2" height="2" transform="rotate(90 109 100)" fill="#2C3633"/>
<rect x="109" y="124" width="2" height="2" transform="rotate(90 109 124)" fill="#2C3633"/>
<rect x="109" y="148" width="2" height="2" transform="rotate(90 109 148)" fill="#2C3633"/>
<rect x="110" y="171" width="4" height="4" transform="rotate(90 110 171)" fill="#4FF2A4"/>
<rect x="109" y="196" width="2" height="2" transform="rotate(90 109 196)" fill="#2C3633"/>
<rect x="109" y="220" width="2" height="2" transform="rotate(90 109 220)" fill="#2C3633"/>
<rect x="109" y="244" width="2" height="2" transform="rotate(90 109 244)" fill="#2C3633"/>
<rect x="109" y="268" width="2" height="2" transform="rotate(90 109 268)" fill="#2C3633"/>
<rect x="109" y="292" width="2" height="2" transform="rotate(90 109 292)" fill="#2C3633"/>
<rect x="109" y="316" width="2" height="2" transform="rotate(90 109 316)" fill="#2C3633"/>
<rect x="109" y="340" width="2" height="2" transform="rotate(90 109 340)" fill="#2C3633"/>
<rect x="109" y="364" width="2" height="2" transform="rotate(90 109 364)" fill="#2C3633"/>
<rect x="133" y="16" width="2" height="2" transform="rotate(90 133 16)" fill="#2C3633"/>
<rect x="133" y="40" width="2" height="2" transform="rotate(90 133 40)" fill="#2C3633"/>
<rect x="133" y="64" width="2" height="2" transform="rotate(90 133 64)" fill="#2C3633"/>
<rect x="133" y="88" width="2" height="2" transform="rotate(90 133 88)" fill="#2C3633"/>
<rect x="133" y="112" width="2" height="2" transform="rotate(90 133 112)" fill="#2C3633"/>
<rect x="133" y="136" width="2" height="2" transform="rotate(90 133 136)" fill="#2C3633"/>
<rect x="133" y="160" width="2" height="2" transform="rotate(90 133 160)" fill="#2C3633"/>
<rect x="133" y="184" width="2" height="2" transform="rotate(90 133 184)" fill="#2C3633"/>
<rect x="133" y="208" width="2" height="2" transform="rotate(90 133 208)" fill="#2C3633"/>
<rect x="133" y="232" width="2" height="2" transform="rotate(90 133 232)" fill="#2C3633"/>
<rect x="133" y="256" width="2" height="2" transform="rotate(90 133 256)" fill="#2C3633"/>
<rect x="133" y="280" width="2" height="2" transform="rotate(90 133 280)" fill="#2C3633"/>
<rect x="133" y="304" width="2" height="2" transform="rotate(90 133 304)" fill="#2C3633"/>
<rect x="133" y="328" width="2" height="2" transform="rotate(90 133 328)" fill="#2C3633"/>
<rect x="133" y="352" width="2" height="2" transform="rotate(90 133 352)" fill="#2C3633"/>
<rect x="133" y="376" width="2" height="2" transform="rotate(90 133 376)" fill="#2C3633"/>
<rect x="157" y="4" width="2" height="2" transform="rotate(90 157 4)" fill="#2C3633"/>
<rect x="157" y="28" width="2" height="2" transform="rotate(90 157 28)" fill="#2C3633"/>
<rect x="157" y="52" width="2" height="2" transform="rotate(90 157 52)" fill="#2C3633"/>
<rect x="157" y="76" width="2" height="2" transform="rotate(90 157 76)" fill="#2C3633"/>
<rect x="157" y="100" width="2" height="2" transform="rotate(90 157 100)" fill="#2C3633"/>
<rect x="157" y="124" width="2" height="2" transform="rotate(90 157 124)" fill="#2C3633"/>
<rect x="157" y="148" width="2" height="2" transform="rotate(90 157 148)" fill="#2C3633"/>
<rect x="157" y="172" width="2" height="2" transform="rotate(90 157 172)" fill="#2C3633"/>
<rect x="157" y="196" width="2" height="2" transform="rotate(90 157 196)" fill="#4FF2A4"/>
<rect x="157" y="220" width="2" height="2" transform="rotate(90 157 220)" fill="#4FF2A4"/>
<rect x="157" y="244" width="2" height="2" transform="rotate(90 157 244)" fill="#2C3633"/>
<rect x="157" y="268" width="2" height="2" transform="rotate(90 157 268)" fill="#2C3633"/>
<rect x="157" y="292" width="2" height="2" transform="rotate(90 157 292)" fill="#2C3633"/>
<rect x="157" y="316" width="2" height="2" transform="rotate(90 157 316)" fill="#2C3633"/>
<rect x="157" y="340" width="2" height="2" transform="rotate(90 157 340)" fill="#2C3633"/>
<rect x="157" y="364" width="2" height="2" transform="rotate(90 157 364)" fill="#2C3633"/>
<rect x="181" y="16" width="2" height="2" transform="rotate(90 181 16)" fill="#2C3633"/>
<rect x="181" y="40" width="2" height="2" transform="rotate(90 181 40)" fill="#2C3633"/>
<rect x="181" y="64" width="2" height="2" transform="rotate(90 181 64)" fill="#2C3633"/>
<rect x="181" y="88" width="2" height="2" transform="rotate(90 181 88)" fill="#2C3633"/>
<rect x="181" y="112" width="2" height="2" transform="rotate(90 181 112)" fill="#2C3633"/>
<rect x="181" y="136" width="2" height="2" transform="rotate(90 181 136)" fill="#2C3633"/>
<rect x="181" y="160" width="2" height="2" transform="rotate(90 181 160)" fill="#4FF2A4"/>
<rect x="181" y="184" width="2" height="2" transform="rotate(90 181 184)" fill="#2C3633"/>
<rect x="181" y="208" width="2" height="2" transform="rotate(90 181 208)" fill="#2C3633"/>
<rect x="181" y="232" width="2" height="2" transform="rotate(90 181 232)" fill="#2C3633"/>
<rect x="181" y="256" width="2" height="2" transform="rotate(90 181 256)" fill="#2C3633"/>
<rect x="181" y="280" width="2" height="2" transform="rotate(90 181 280)" fill="#2C3633"/>
<rect x="181" y="304" width="2" height="2" transform="rotate(90 181 304)" fill="#2C3633"/>
<rect x="181" y="328" width="2" height="2" transform="rotate(90 181 328)" fill="#2C3633"/>
<rect x="181" y="352" width="2" height="2" transform="rotate(90 181 352)" fill="#2C3633"/>
<rect x="181" y="376" width="2" height="2" transform="rotate(90 181 376)" fill="#2C3633"/>
<rect x="205" y="4" width="2" height="2" transform="rotate(90 205 4)" fill="#2C3633"/>
<rect x="208" y="25" width="8" height="8" transform="rotate(90 208 25)" fill="#2C3633"/>
<rect x="205" y="52" width="2" height="2" transform="rotate(90 205 52)" fill="#2C3633"/>
<rect x="205" y="76" width="2" height="2" transform="rotate(90 205 76)" fill="#2C3633"/>
<rect x="205" y="100" width="2" height="2" transform="rotate(90 205 100)" fill="#2C3633"/>
<rect x="205" y="124" width="2" height="2" transform="rotate(90 205 124)" fill="#2C3633"/>
<rect x="205" y="148" width="2" height="2" transform="rotate(90 205 148)" fill="#2C3633"/>
<rect x="206" y="171" width="4" height="4" transform="rotate(90 206 171)" fill="#4FF2A4"/>
<rect x="205" y="196" width="2" height="2" transform="rotate(90 205 196)" fill="#2C3633"/>
<rect x="205" y="220" width="2" height="2" transform="rotate(90 205 220)" fill="#2C3633"/>
<rect x="205" y="244" width="2" height="2" transform="rotate(90 205 244)" fill="#2C3633"/>
<rect x="205" y="268" width="2" height="2" transform="rotate(90 205 268)" fill="#2C3633"/>
<rect x="205" y="292" width="2" height="2" transform="rotate(90 205 292)" fill="#2C3633"/>
<rect x="205" y="316" width="2" height="2" transform="rotate(90 205 316)" fill="#2C3633"/>
<rect x="205" y="340" width="2" height="2" transform="rotate(90 205 340)" fill="#2C3633"/>
<rect x="205" y="364" width="2" height="2" transform="rotate(90 205 364)" fill="#2C3633"/>
<rect x="229" y="16" width="2" height="2" transform="rotate(90 229 16)" fill="#4FF2A4"/>
<rect x="229" y="40" width="2" height="2" transform="rotate(90 229 40)" fill="#2C3633"/>
<rect x="229" y="64" width="2" height="2" transform="rotate(90 229 64)" fill="#2C3633"/>
<rect x="229" y="88" width="2" height="2" transform="rotate(90 229 88)" fill="#2C3633"/>
<rect x="229" y="112" width="2" height="2" transform="rotate(90 229 112)" fill="#2C3633"/>
<rect x="229" y="136" width="2" height="2" transform="rotate(90 229 136)" fill="#4FF2A4"/>
<rect x="229" y="160" width="2" height="2" transform="rotate(90 229 160)" fill="#2C3633"/>
<rect x="230" y="183" width="4" height="4" transform="rotate(90 230 183)" fill="#2C3633"/>
<rect x="229" y="208" width="2" height="2" transform="rotate(90 229 208)" fill="#2C3633"/>
<rect x="229" y="232" width="2" height="2" transform="rotate(90 229 232)" fill="#2C3633"/>
<rect x="229" y="256" width="2" height="2" transform="rotate(90 229 256)" fill="#2C3633"/>
<rect x="229" y="280" width="2" height="2" transform="rotate(90 229 280)" fill="#2C3633"/>
<rect x="229" y="304" width="2" height="2" transform="rotate(90 229 304)" fill="#2C3633"/>
<rect x="229" y="328" width="2" height="2" transform="rotate(90 229 328)" fill="#2C3633"/>
<rect x="229" y="352" width="2" height="2" transform="rotate(90 229 352)" fill="#2C3633"/>
<rect x="229" y="376" width="2" height="2" transform="rotate(90 229 376)" fill="#2C3633"/>
<rect x="254" y="3" width="4" height="4" transform="rotate(90 254 3)" fill="#2C3633"/>
<rect x="253" y="28" width="2" height="2" transform="rotate(90 253 28)" fill="#4FF2A4"/>
<rect x="253" y="52" width="2" height="2" transform="rotate(90 253 52)" fill="#2C3633"/>
<rect x="256" y="73" width="8" height="8" transform="rotate(90 256 73)" fill="#2C3633"/>
<rect x="253" y="100" width="2" height="2" transform="rotate(90 253 100)" fill="#2C3633"/>
<rect x="253" y="124" width="2" height="2" transform="rotate(90 253 124)" fill="#2C3633"/>
<rect x="253" y="148" width="2" height="2" transform="rotate(90 253 148)" fill="#2C3633"/>
<rect x="253" y="172" width="2" height="2" transform="rotate(90 253 172)" fill="#2C3633"/>
<rect x="254" y="195" width="4" height="4" transform="rotate(90 254 195)" fill="#2C3633"/>
<rect x="253" y="220" width="2" height="2" transform="rotate(90 253 220)" fill="#2C3633"/>
<rect x="253" y="244" width="2" height="2" transform="rotate(90 253 244)" fill="#2C3633"/>
<rect x="253" y="268" width="2" height="2" transform="rotate(90 253 268)" fill="#2C3633"/>
<rect x="253" y="292" width="2" height="2" transform="rotate(90 253 292)" fill="#2C3633"/>
<rect x="253" y="316" width="2" height="2" transform="rotate(90 253 316)" fill="#2C3633"/>
<rect x="253" y="340" width="2" height="2" transform="rotate(90 253 340)" fill="#2C3633"/>
<rect x="253" y="364" width="2" height="2" transform="rotate(90 253 364)" fill="#2C3633"/>
<rect x="277" y="16" width="2" height="2" transform="rotate(90 277 16)" fill="#2C3633"/>
<rect x="277" y="40" width="2" height="2" transform="rotate(90 277 40)" fill="#2C3633"/>
<rect x="277" y="64" width="2" height="2" transform="rotate(90 277 64)" fill="#2C3633"/>
<rect x="278" y="87" width="4" height="4" transform="rotate(90 278 87)" fill="#2C3633"/>
<rect x="278" y="111" width="4" height="4" transform="rotate(90 278 111)" fill="#4FF2A4"/>
<rect x="277" y="136" width="2" height="2" transform="rotate(90 277 136)" fill="#2C3633"/>
<rect x="277" y="160" width="2" height="2" transform="rotate(90 277 160)" fill="#2C3633"/>
<rect x="278" y="183" width="4" height="4" transform="rotate(90 278 183)" fill="#2C3633"/>
<rect x="277" y="208" width="2" height="2" transform="rotate(90 277 208)" fill="#2C3633"/>
<rect x="277" y="232" width="2" height="2" transform="rotate(90 277 232)" fill="#2C3633"/>
<rect x="277" y="256" width="2" height="2" transform="rotate(90 277 256)" fill="#2C3633"/>
<rect x="277" y="280" width="2" height="2" transform="rotate(90 277 280)" fill="#2C3633"/>
<rect x="277" y="304" width="2" height="2" transform="rotate(90 277 304)" fill="#2C3633"/>
<rect x="277" y="328" width="2" height="2" transform="rotate(90 277 328)" fill="#2C3633"/>
<rect x="277" y="352" width="2" height="2" transform="rotate(90 277 352)" fill="#2C3633"/>
<rect x="277" y="376" width="2" height="2" transform="rotate(90 277 376)" fill="#2C3633"/>
<rect x="301" y="4" width="2" height="2" transform="rotate(90 301 4)" fill="#2C3633"/>
<rect x="301" y="28" width="2" height="2" transform="rotate(90 301 28)" fill="#4FF2A4"/>
<rect x="301" y="52" width="2" height="2" transform="rotate(90 301 52)" fill="#2C3633"/>
<rect x="302" y="75" width="4" height="4" transform="rotate(90 302 75)" fill="#2C3633"/>
<rect x="301" y="100" width="2" height="2" transform="rotate(90 301 100)" fill="#2C3633"/>
<rect x="302" y="123" width="4" height="4" transform="rotate(90 302 123)" fill="#2C3633"/>
<rect x="301" y="148" width="2" height="2" transform="rotate(90 301 148)" fill="#2C3633"/>
<rect x="302" y="171" width="4" height="4" transform="rotate(90 302 171)" fill="#4FF2A4"/>
<rect x="301" y="196" width="2" height="2" transform="rotate(90 301 196)" fill="#2C3633"/>
<rect x="301" y="220" width="2" height="2" transform="rotate(90 301 220)" fill="#2C3633"/>
<rect x="302" y="243" width="4" height="4" transform="rotate(90 302 243)" fill="#2C3633"/>
<rect x="301" y="268" width="2" height="2" transform="rotate(90 301 268)" fill="#2C3633"/>
<rect x="301" y="292" width="2" height="2" transform="rotate(90 301 292)" fill="#2C3633"/>
<rect x="301" y="316" width="2" height="2" transform="rotate(90 301 316)" fill="#2C3633"/>
<rect x="301" y="340" width="2" height="2" transform="rotate(90 301 340)" fill="#2C3633"/>
<rect x="301" y="364" width="2" height="2" transform="rotate(90 301 364)" fill="#2C3633"/>
<rect x="325" y="16" width="2" height="2" transform="rotate(90 325 16)" fill="#2C3633"/>
<rect x="325" y="40" width="2" height="2" transform="rotate(90 325 40)" fill="#2C3633"/>
<rect x="325" y="64" width="2" height="2" transform="rotate(90 325 64)" fill="#2C3633"/>
<rect x="328" y="85" width="8" height="8" transform="rotate(90 328 85)" fill="#2C3633"/>
<rect x="325" y="112" width="2" height="2" transform="rotate(90 325 112)" fill="#2C3633"/>
<rect x="326" y="135" width="4" height="4" transform="rotate(90 326 135)" fill="#4FF2A4"/>
<rect x="325" y="160" width="2" height="2" transform="rotate(90 325 160)" fill="#2C3633"/>
<rect x="328" y="181" width="8" height="8" transform="rotate(90 328 181)" fill="#2C3633"/>
<rect x="326" y="207" width="4" height="4" transform="rotate(90 326 207)" fill="#2C3633"/>
<rect x="325" y="232" width="2" height="2" transform="rotate(90 325 232)" fill="#2C3633"/>
<rect x="325" y="256" width="2" height="2" transform="rotate(90 325 256)" fill="#2C3633"/>
<rect x="325" y="280" width="2" height="2" transform="rotate(90 325 280)" fill="#2C3633"/>
<rect x="325" y="304" width="2" height="2" transform="rotate(90 325 304)" fill="#2C3633"/>
<rect x="325" y="328" width="2" height="2" transform="rotate(90 325 328)" fill="#2C3633"/>
<rect x="325" y="352" width="2" height="2" transform="rotate(90 325 352)" fill="#2C3633"/>
<rect x="325" y="376" width="2" height="2" transform="rotate(90 325 376)" fill="#2C3633"/>
<rect x="349" y="4" width="2" height="2" transform="rotate(90 349 4)" fill="#2C3633"/>
<rect x="349" y="28" width="2" height="2" transform="rotate(90 349 28)" fill="#2C3633"/>
<rect x="349" y="52" width="2" height="2" transform="rotate(90 349 52)" fill="#2C3633"/>
<rect x="352" y="73" width="8" height="8" transform="rotate(90 352 73)" fill="#4FF2A4"/>
<rect x="350" y="99" width="4" height="4" transform="rotate(90 350 99)" fill="#2C3633"/>
<rect x="349" y="124" width="2" height="2" transform="rotate(90 349 124)" fill="#4FF2A4"/>
<rect x="350" y="147" width="4" height="4" transform="rotate(90 350 147)" fill="#2C3633"/>
<rect x="350" y="171" width="4" height="4" transform="rotate(90 350 171)" fill="#2C3633"/>
<rect x="350" y="195" width="4" height="4" transform="rotate(90 350 195)" fill="#2C3633"/>
<rect x="349" y="220" width="2" height="2" transform="rotate(90 349 220)" fill="#2C3633"/>
<rect x="349" y="244" width="2" height="2" transform="rotate(90 349 244)" fill="#2C3633"/>
<rect x="349" y="268" width="2" height="2" transform="rotate(90 349 268)" fill="#2C3633"/>
<rect x="349" y="292" width="2" height="2" transform="rotate(90 349 292)" fill="#2C3633"/>
<rect x="349" y="316" width="2" height="2" transform="rotate(90 349 316)" fill="#2C3633"/>
<rect x="349" y="340" width="2" height="2" transform="rotate(90 349 340)" fill="#2C3633"/>
<rect x="349" y="364" width="2" height="2" transform="rotate(90 349 364)" fill="#2C3633"/>
<rect x="373" y="16" width="2" height="2" transform="rotate(90 373 16)" fill="#2C3633"/>
<rect x="373" y="40" width="2" height="2" transform="rotate(90 373 40)" fill="#2C3633"/>
<rect x="373" y="64" width="2" height="2" transform="rotate(90 373 64)" fill="#2C3633"/>
<rect x="374" y="87" width="4" height="4" transform="rotate(90 374 87)" fill="#2C3633"/>
<rect x="376" y="109" width="8" height="8" transform="rotate(90 376 109)" fill="#2C3633"/>
<rect x="373" y="136" width="2" height="2" transform="rotate(90 373 136)" fill="#2C3633"/>
<rect x="376" y="157" width="8" height="8" transform="rotate(90 376 157)" fill="#4FF2A4"/>
<rect x="373" y="184" width="2" height="2" transform="rotate(90 373 184)" fill="#2C3633"/>
<rect x="373" y="208" width="2" height="2" transform="rotate(90 373 208)" fill="#2C3633"/>
<rect x="373" y="232" width="2" height="2" transform="rotate(90 373 232)" fill="#2C3633"/>
<rect x="373" y="256" width="2" height="2" transform="rotate(90 373 256)" fill="#2C3633"/>
<rect x="373" y="280" width="2" height="2" transform="rotate(90 373 280)" fill="#2C3633"/>
<rect x="373" y="304" width="2" height="2" transform="rotate(90 373 304)" fill="#2C3633"/>
<rect x="373" y="328" width="2" height="2" transform="rotate(90 373 328)" fill="#2C3633"/>
<rect x="373" y="352" width="2" height="2" transform="rotate(90 373 352)" fill="#2C3633"/>
<rect x="373" y="376" width="2" height="2" transform="rotate(90 373 376)" fill="#2C3633"/>
<rect x="397" y="4" width="2" height="2" transform="rotate(90 397 4)" fill="#2C3633"/>
<rect x="397" y="28" width="2" height="2" transform="rotate(90 397 28)" fill="#2C3633"/>
<rect x="397" y="52" width="2" height="2" transform="rotate(90 397 52)" fill="#2C3633"/>
<rect x="398" y="75" width="4" height="4" transform="rotate(90 398 75)" fill="#4FF2A4"/>
<rect x="398" y="99" width="4" height="4" transform="rotate(90 398 99)" fill="#2C3633"/>
<rect x="400" y="121" width="8" height="8" transform="rotate(90 400 121)" fill="#2C3633"/>
<rect x="398" y="147" width="4" height="4" transform="rotate(90 398 147)" fill="#2C3633"/>
<rect x="398" y="171" width="4" height="4" transform="rotate(90 398 171)" fill="#2C3633"/>
<rect x="397" y="196" width="2" height="2" transform="rotate(90 397 196)" fill="#2C3633"/>
<rect x="397" y="220" width="2" height="2" transform="rotate(90 397 220)" fill="#2C3633"/>
<rect x="397" y="244" width="2" height="2" transform="rotate(90 397 244)" fill="#2C3633"/>
<rect x="397" y="268" width="2" height="2" transform="rotate(90 397 268)" fill="#2C3633"/>
<rect x="397" y="292" width="2" height="2" transform="rotate(90 397 292)" fill="#2C3633"/>
<rect x="397" y="316" width="2" height="2" transform="rotate(90 397 316)" fill="#2C3633"/>
<rect x="397" y="340" width="2" height="2" transform="rotate(90 397 340)" fill="#2C3633"/>
<rect x="397" y="364" width="2" height="2" transform="rotate(90 397 364)" fill="#2C3633"/>
<rect x="421" y="16" width="2" height="2" transform="rotate(90 421 16)" fill="#2C3633"/>
<rect x="421" y="40" width="2" height="2" transform="rotate(90 421 40)" fill="#2C3633"/>
<rect x="421" y="64" width="2" height="2" transform="rotate(90 421 64)" fill="#2C3633"/>
<rect x="421" y="88" width="2" height="2" transform="rotate(90 421 88)" fill="#2C3633"/>
<rect x="422" y="111" width="4" height="4" transform="rotate(90 422 111)" fill="#4FF2A4"/>
<rect x="421" y="136" width="2" height="2" transform="rotate(90 421 136)" fill="#2C3633"/>
<rect x="421" y="160" width="2" height="2" transform="rotate(90 421 160)" fill="#2C3633"/>
<rect x="421" y="184" width="2" height="2" transform="rotate(90 421 184)" fill="#2C3633"/>
<rect x="421" y="208" width="2" height="2" transform="rotate(90 421 208)" fill="#4FF2A4"/>
<rect x="421" y="232" width="2" height="2" transform="rotate(90 421 232)" fill="#2C3633"/>
<rect x="421" y="256" width="2" height="2" transform="rotate(90 421 256)" fill="#2C3633"/>
<rect x="421" y="280" width="2" height="2" transform="rotate(90 421 280)" fill="#2C3633"/>
<rect x="421" y="304" width="2" height="2" transform="rotate(90 421 304)" fill="#2C3633"/>
<rect x="421" y="328" width="2" height="2" transform="rotate(90 421 328)" fill="#2C3633"/>
<rect x="421" y="352" width="2" height="2" transform="rotate(90 421 352)" fill="#2C3633"/>
<rect x="421" y="376" width="2" height="2" transform="rotate(90 421 376)" fill="#2C3633"/>
<rect x="445" y="4" width="2" height="2" transform="rotate(90 445 4)" fill="#2C3633"/>
<rect x="445" y="28" width="2" height="2" transform="rotate(90 445 28)" fill="#2C3633"/>
<rect x="445" y="52" width="2" height="2" transform="rotate(90 445 52)" fill="#2C3633"/>
<rect x="446" y="75" width="4" height="4" transform="rotate(90 446 75)" fill="#2C3633"/>
<rect x="446" y="99" width="4" height="4" transform="rotate(90 446 99)" fill="#2C3633"/>
<rect x="446" y="123" width="4" height="4" transform="rotate(90 446 123)" fill="#2C3633"/>
<rect x="445" y="148" width="2" height="2" transform="rotate(90 445 148)" fill="#2C3633"/>
<rect x="445" y="172" width="2" height="2" transform="rotate(90 445 172)" fill="#2C3633"/>
<rect x="445" y="196" width="2" height="2" transform="rotate(90 445 196)" fill="#2C3633"/>
<rect x="445" y="220" width="2" height="2" transform="rotate(90 445 220)" fill="#2C3633"/>
<rect x="445" y="244" width="2" height="2" transform="rotate(90 445 244)" fill="#2C3633"/>
<rect x="445" y="268" width="2" height="2" transform="rotate(90 445 268)" fill="#2C3633"/>
<rect x="445" y="292" width="2" height="2" transform="rotate(90 445 292)" fill="#2C3633"/>
<rect x="445" y="316" width="2" height="2" transform="rotate(90 445 316)" fill="#2C3633"/>
<rect x="445" y="340" width="2" height="2" transform="rotate(90 445 340)" fill="#2C3633"/>
<rect x="445" y="364" width="2" height="2" transform="rotate(90 445 364)" fill="#2C3633"/>
</svg>
